<svg xmlns="http://www.w3.org/2000/svg" width="560" height="120" viewBox="0 0 560 120" fill="none">
  <defs>
    <linearGradient id="layer-grad" x1="0%" y1="0%" x2="100%" y2="100%">
      <stop offset="0%" stop-color="#38bdf8" stop-opacity="0.6"/>
      <stop offset="100%" stop-color="#38bdf8" stop-opacity="1"/>
    </linearGradient>
    <radialGradient id="center-glow" cx="50%" cy="50%" r="50%">
      <stop offset="0%" stop-color="#38bdf8" stop-opacity="0.06"/>
      <stop offset="100%" stop-color="transparent" stop-opacity="0"/>
    </radialGradient>
  </defs>

  <!-- Background: slate-950 -->
  <rect width="560" height="120" rx="12" fill="#020617"/>

  <!-- Dot grid matching website hero — 28px spacing, radial brightness falloff -->
  <!-- Row 0 (y=14) -->
  <circle cx="14" cy="14" r="0.6" fill="#38bdf8" opacity="0.06"/><circle cx="42" cy="14" r="0.6" fill="#38bdf8" opacity="0.06"/><circle cx="70" cy="14" r="0.6" fill="#38bdf8" opacity="0.06"/><circle cx="98" cy="14" r="0.6" fill="#38bdf8" opacity="0.07"/><circle cx="126" cy="14" r="0.6" fill="#38bdf8" opacity="0.07"/><circle cx="154" cy="14" r="0.7" fill="#38bdf8" opacity="0.08"/><circle cx="182" cy="14" r="0.7" fill="#38bdf8" opacity="0.09"/><circle cx="210" cy="14" r="0.7" fill="#38bdf8" opacity="0.1"/><circle cx="238" cy="14" r="0.8" fill="#38bdf8" opacity="0.11"/><circle cx="266" cy="14" r="0.8" fill="#38bdf8" opacity="0.12"/><circle cx="294" cy="14" r="0.8" fill="#38bdf8" opacity="0.12"/><circle cx="322" cy="14" r="0.8" fill="#38bdf8" opacity="0.11"/><circle cx="350" cy="14" r="0.7" fill="#38bdf8" opacity="0.1"/><circle cx="378" cy="14" r="0.7" fill="#38bdf8" opacity="0.09"/><circle cx="406" cy="14" r="0.7" fill="#38bdf8" opacity="0.08"/><circle cx="434" cy="14" r="0.6" fill="#38bdf8" opacity="0.07"/><circle cx="462" cy="14" r="0.6" fill="#38bdf8" opacity="0.07"/><circle cx="490" cy="14" r="0.6" fill="#38bdf8" opacity="0.06"/><circle cx="518" cy="14" r="0.6" fill="#38bdf8" opacity="0.06"/><circle cx="546" cy="14" r="0.6" fill="#38bdf8" opacity="0.06"/>

  <!-- Row 1 (y=42) -->
  <circle cx="14" cy="42" r="0.6" fill="#38bdf8" opacity="0.07"/><circle cx="42" cy="42" r="0.6" fill="#38bdf8" opacity="0.07"/><circle cx="70" cy="42" r="0.7" fill="#38bdf8" opacity="0.08"/><circle cx="98" cy="42" r="0.7" fill="#38bdf8" opacity="0.09"/><circle cx="126" cy="42" r="0.8" fill="#38bdf8" opacity="0.1"/><circle cx="154" cy="42" r="0.8" fill="#38bdf8" opacity="0.12"/><circle cx="182" cy="42" r="0.9" fill="#38bdf8" opacity="0.14"/><circle cx="210" cy="42" r="0.9" fill="#38bdf8" opacity="0.16"/><circle cx="238" cy="42" r="1.0" fill="#38bdf8" opacity="0.18"/><circle cx="266" cy="42" r="1.0" fill="#38bdf8" opacity="0.2"/><circle cx="294" cy="42" r="1.0" fill="#38bdf8" opacity="0.2"/><circle cx="322" cy="42" r="1.0" fill="#38bdf8" opacity="0.18"/><circle cx="350" cy="42" r="0.9" fill="#38bdf8" opacity="0.16"/><circle cx="378" cy="42" r="0.9" fill="#38bdf8" opacity="0.14"/><circle cx="406" cy="42" r="0.8" fill="#38bdf8" opacity="0.12"/><circle cx="434" cy="42" r="0.8" fill="#38bdf8" opacity="0.1"/><circle cx="462" cy="42" r="0.7" fill="#38bdf8" opacity="0.09"/><circle cx="490" cy="42" r="0.7" fill="#38bdf8" opacity="0.08"/><circle cx="518" cy="42" r="0.6" fill="#38bdf8" opacity="0.07"/><circle cx="546" cy="42" r="0.6" fill="#38bdf8" opacity="0.07"/>

  <!-- Row 2 (y=70) — center row, brightest -->
  <circle cx="14" cy="70" r="0.7" fill="#38bdf8" opacity="0.08"/><circle cx="42" cy="70" r="0.7" fill="#38bdf8" opacity="0.09"/><circle cx="70" cy="70" r="0.8" fill="#38bdf8" opacity="0.1"/><circle cx="98" cy="70" r="0.8" fill="#38bdf8" opacity="0.12"/><circle cx="126" cy="70" r="0.9" fill="#38bdf8" opacity="0.14"/><circle cx="154" cy="70" r="1.0" fill="#38bdf8" opacity="0.17"/><circle cx="182" cy="70" r="1.0" fill="#38bdf8" opacity="0.2"/><circle cx="210" cy="70" r="1.1" fill="#38bdf8" opacity="0.24"/><circle cx="238" cy="70" r="1.2" fill="#38bdf8" opacity="0.28"/><circle cx="266" cy="70" r="1.3" fill="#38bdf8" opacity="0.3"/><circle cx="294" cy="70" r="1.3" fill="#38bdf8" opacity="0.3"/><circle cx="322" cy="70" r="1.2" fill="#38bdf8" opacity="0.28"/><circle cx="350" cy="70" r="1.1" fill="#38bdf8" opacity="0.24"/><circle cx="378" cy="70" r="1.0" fill="#38bdf8" opacity="0.2"/><circle cx="406" cy="70" r="1.0" fill="#38bdf8" opacity="0.17"/><circle cx="434" cy="70" r="0.9" fill="#38bdf8" opacity="0.14"/><circle cx="462" cy="70" r="0.8" fill="#38bdf8" opacity="0.12"/><circle cx="490" cy="70" r="0.8" fill="#38bdf8" opacity="0.1"/><circle cx="518" cy="70" r="0.7" fill="#38bdf8" opacity="0.09"/><circle cx="546" cy="70" r="0.7" fill="#38bdf8" opacity="0.08"/>

  <!-- Row 3 (y=98) -->
  <circle cx="14" cy="98" r="0.6" fill="#38bdf8" opacity="0.07"/><circle cx="42" cy="98" r="0.6" fill="#38bdf8" opacity="0.07"/><circle cx="70" cy="98" r="0.7" fill="#38bdf8" opacity="0.08"/><circle cx="98" cy="98" r="0.7" fill="#38bdf8" opacity="0.09"/><circle cx="126" cy="98" r="0.8" fill="#38bdf8" opacity="0.1"/><circle cx="154" cy="98" r="0.8" fill="#38bdf8" opacity="0.12"/><circle cx="182" cy="98" r="0.9" fill="#38bdf8" opacity="0.14"/><circle cx="210" cy="98" r="0.9" fill="#38bdf8" opacity="0.16"/><circle cx="238" cy="98" r="1.0" fill="#38bdf8" opacity="0.18"/><circle cx="266" cy="98" r="1.0" fill="#38bdf8" opacity="0.2"/><circle cx="294" cy="98" r="1.0" fill="#38bdf8" opacity="0.2"/><circle cx="322" cy="98" r="1.0" fill="#38bdf8" opacity="0.18"/><circle cx="350" cy="98" r="0.9" fill="#38bdf8" opacity="0.16"/><circle cx="378" cy="98" r="0.9" fill="#38bdf8" opacity="0.14"/><circle cx="406" cy="98" r="0.8" fill="#38bdf8" opacity="0.12"/><circle cx="434" cy="98" r="0.8" fill="#38bdf8" opacity="0.1"/><circle cx="462" cy="98" r="0.7" fill="#38bdf8" opacity="0.09"/><circle cx="490" cy="98" r="0.7" fill="#38bdf8" opacity="0.08"/><circle cx="518" cy="98" r="0.6" fill="#38bdf8" opacity="0.07"/><circle cx="546" cy="98" r="0.6" fill="#38bdf8" opacity="0.07"/>

  <!-- Subtle center glow -->
  <ellipse cx="280" cy="60" rx="180" ry="50" fill="#38bdf8" opacity="0.03"/>

  <g transform="translate(164, 20)">
    <!-- Top layer — smallest, most transparent -->
    <path d="M10 27L16 22L36 22L30 27Z" fill="#38bdf8" opacity="0.25"/>
    <path d="M10 27L16 22L36 22L30 27Z" stroke="#38bdf8" stroke-width="0.5" opacity="0.4"/>

    <!-- Middle layer -->
    <path d="M5 37L11 32L39 32L33 37Z" fill="#38bdf8" opacity="0.5"/>
    <path d="M5 37L11 32L39 32L33 37Z" stroke="#38bdf8" stroke-width="0.5" opacity="0.6"/>

    <!-- Base layer — widest, most opaque, gradient fill -->
    <path d="M0 47L6 42L42 42L36 47Z" fill="url(#layer-grad)"/>
    <path d="M0 47L6 42L42 42L36 47Z" stroke="#38bdf8" stroke-width="0.5" opacity="1"/>

    <!-- Connecting lines -->
    <line x1="10" y1="27" x2="5" y2="37" stroke="#38bdf8" stroke-width="0.5" opacity="0.2"/>
    <line x1="30" y1="27" x2="33" y2="37" stroke="#38bdf8" stroke-width="0.5" opacity="0.2"/>
    <line x1="5" y1="37" x2="0" y2="47" stroke="#38bdf8" stroke-width="0.5" opacity="0.2"/>
    <line x1="33" y1="37" x2="36" y2="47" stroke="#38bdf8" stroke-width="0.5" opacity="0.2"/>

    <!-- Subtle glow on base -->
    <path d="M0 47L6 42L42 42L36 47Z" fill="#38bdf8" opacity="0.08"/>

    <!-- Text -->
    <text x="52" y="43" font-family="ui-monospace, SFMono-Regular, 'SF Mono', Menlo, Consolas, monospace" font-size="28" font-weight="600" fill="#e2e8f0" letter-spacing="-0.5">Base Layer</text>
  </g>

  <!-- Tagline -->
  <text x="280" y="90" text-anchor="middle" font-family="ui-monospace, SFMono-Regular, 'SF Mono', Menlo, Consolas, monospace" font-size="11" fill="#94a3b8" letter-spacing="0.5">Behavioral Compression for AI Identity</text>
</svg>
